<?xml version="1.0" standalone="no"?>
<!DOCTYPE svg PUBLIC "-//W3C//DTD SVG 20010904//EN"
 "http://www.w3.org/TR/2001/REC-SVG-20010904/DTD/svg10.dtd">
<svg version="1.0" xmlns="http://www.w3.org/2000/svg"
 width="320.000000pt" height="400.000000pt" viewBox="0 0 320.000000 400.000000"
 preserveAspectRatio="xMidYMid meet">

<g transform="translate(0.000000,400.000000) scale(0.100000,-0.100000)"
fill="#000000" stroke="none">
<path d="M1100 3990 c0 -5 -9 -10 -21 -10 -12 0 -30 -12 -42 -26 -19 -25 -22
-26 -106 -21 -47 3 -100 9 -118 12 -25 6 -39 2 -66 -19 -40 -30 -54 -32 -102
-9 -33 16 -37 16 -83 -6 l-48 -22 -56 21 c-53 19 -59 20 -81 5 -29 -19 -132
-28 -177 -15 -22 6 -39 6 -54 -2 -21 -12 -96 -29 -129 -29 -16 0 -17 -69 -17
-1307 l0 -1307 52 2 c29 1 84 10 122 18 38 9 95 14 125 12 43 -3 61 1 80 15
16 12 41 18 77 18 29 0 64 4 78 10 14 5 26 6 26 2 0 -4 9 -8 20 -9 11 -1 20 3
20 8 0 6 4 8 9 5 4 -3 36 5 69 18 33 13 93 29 134 36 113 18 142 23 153 27 6
1 36 8 69 13 32 6 66 15 76 20 19 10 60 3 60 -11 0 -5 -3 -9 -8 -9 -4 0 -13
-14 -21 -31 -8 -18 -22 -34 -32 -36 -11 -3 -19 -11 -19 -18 0 -7 -7 -15 -15
-19 -8 -3 -12 -12 -9 -21 4 -10 0 -15 -15 -15 -12 0 -21 -4 -21 -10 0 -5 5
-10 11 -10 5 0 7 -5 4 -10 -4 -6 -16 -8 -27 -4 -17 5 -19 3 -13 -15 4 -12 2
-21 -4 -21 -6 0 -11 5 -11 10 0 6 -5 10 -11 10 -12 0 -1 -43 12 -48 5 -2 9 -8
9 -14 0 -7 -5 -7 -13 1 -8 6 -18 7 -22 3 -5 -4 -5 -1 -1 6 12 21 -5 35 -19 15
-12 -16 -17 -16 -46 -6 -25 10 -35 10 -40 1 -4 -7 -6 -15 -3 -19 2 -4 -6 -9
-17 -12 -15 -4 -20 -11 -16 -21 9 -22 -28 -21 -51 2 -28 26 -59 42 -82 42 -11
0 -20 4 -20 9 0 5 -13 11 -30 13 -16 3 -30 2 -30 -2 0 -14 25 -30 47 -30 13 0
23 -4 23 -9 0 -14 75 -61 101 -62 16 -1 19 -3 7 -6 -10 -2 -18 -14 -18 -26 0
-20 -3 -19 -28 11 -15 17 -33 32 -40 32 -7 0 -12 5 -12 10 0 6 -7 10 -15 10
-8 0 -23 8 -33 18 -10 10 -24 16 -31 14 -6 -2 -24 1 -39 7 -21 9 -36 8 -67 -3
-35 -13 -37 -15 -13 -15 15 -1 30 -6 33 -11 4 -6 14 -8 23 -6 20 6 50 -10 39
-20 -4 -4 -22 -3 -40 4 -26 9 -41 8 -77 -4 -49 -17 -80 -40 -80 -59 0 -7 -6
-15 -14 -18 -10 -4 -14 -22 -14 -59 1 -29 -2 -60 -6 -68 -9 -23 -3 -73 12 -88
17 -19 15 -30 -6 -34 -14 -3 -12 -8 13 -32 27 -25 27 -28 7 -22 -18 6 -22 4
-22 -14 0 -11 7 -23 15 -26 25 -10 17 -27 -10 -22 -30 6 -31 4 -4 -21 18 -16
19 -22 7 -40 -9 -16 -10 -24 -2 -29 9 -6 11 -49 5 -94 -2 -13 -31 -9 -31 4 0
7 -9 3 -21 -9 -12 -11 -19 -25 -15 -31 10 -17 46 -21 61 -6 13 13 18 13 40 -2
14 -9 28 -14 32 -11 10 11 -7 39 -27 44 -11 3 -20 9 -20 14 0 16 26 10 48 -11
12 -11 24 -20 27 -20 13 0 -10 56 -29 71 -12 10 -18 20 -14 24 12 12 26 -4 52
-56 14 -27 22 -47 17 -44 -5 3 -17 2 -26 -1 -12 -5 -14 -14 -10 -35 4 -18 2
-29 -4 -29 -6 0 -11 3 -11 8 0 4 -11 12 -25 19 -40 18 -32 -13 13 -54 36 -32
36 -33 9 -27 -22 5 -27 3 -27 -12 0 -9 8 -26 17 -37 17 -19 17 -20 1 -14 -21
7 -45 -27 -27 -38 7 -5 4 -13 -7 -26 -13 -14 -14 -22 -6 -32 9 -10 8 -17 -1
-26 -6 -6 -17 -38 -23 -69 -6 -31 -14 -65 -19 -74 -7 -17 53 -18 1129 -18 998
0 1136 2 1136 15 0 10 10 15 29 15 17 0 33 5 36 10 4 6 11 8 16 4 6 -3 18 1
27 9 21 18 84 28 103 17 22 -14 3 -23 -53 -25 -29 -1 -54 -7 -56 -14 -2 -6
-19 -11 -38 -11 -19 0 -34 -5 -34 -10 0 -7 95 -9 274 -8 208 2 273 5 269 14
-2 7 0 15 6 19 19 11 12 35 -11 44 l-23 8 23 7 c30 10 30 46 0 46 l-23 1 23
18 c29 25 29 51 0 51 l-22 0 22 16 c30 21 28 42 -5 46 l-28 4 28 14 c34 17 35
40 1 40 -31 0 -28 23 4 28 14 2 22 11 22 23 0 12 -6 18 -17 16 -25 -3 -28 17
-3 21 25 4 28 43 3 39 -25 -3 -28 17 -3 21 17 3 20 11 20 48 0 30 -5 46 -15
50 -8 4 -15 10 -15 16 0 5 -16 24 -35 42 -19 19 -35 38 -35 45 0 6 -7 11 -16
11 -9 0 -18 9 -21 21 -3 11 -11 18 -18 15 -7 -2 -21 4 -31 15 -9 10 -26 19
-36 19 -10 0 -21 7 -24 15 -4 10 -13 13 -25 10 -17 -6 -39 18 -27 30 6 6 77
-20 90 -33 7 -7 17 -12 23 -12 9 0 98 -83 149 -139 27 -30 36 -26 36 14 0 24
-5 35 -15 35 -8 0 -15 7 -15 15 0 8 -7 15 -15 15 -9 0 -18 7 -22 16 -3 8 -16
20 -29 24 -14 6 -22 15 -18 23 3 10 -5 16 -25 20 -19 4 -31 13 -31 22 0 11 -6
15 -18 11 -12 -4 -26 1 -37 14 -13 14 -21 17 -31 9 -9 -7 -14 -5 -19 10 -4 14
-14 19 -32 18 -14 -1 -28 4 -31 12 -3 10 2 12 19 9 33 -8 123 -42 129 -49 3
-3 19 -13 36 -22 17 -9 59 -43 93 -77 l61 -60 0 40 c0 29 -4 40 -15 40 -9 0
-21 11 -27 25 -6 14 -19 25 -30 25 -10 0 -18 6 -18 13 0 6 -25 23 -55 36 -30
14 -57 31 -60 39 -3 10 -13 12 -30 8 -19 -5 -25 -2 -25 10 0 12 -6 14 -28 9
-32 -7 -65 18 -38 28 32 13 175 -55 264 -125 43 -35 62 -45 62 -34 0 24 -30
66 -46 66 -8 0 -19 9 -26 20 -7 11 -18 20 -24 20 -6 0 -17 7 -24 15 -7 8 -21
15 -31 15 -9 0 -24 7 -33 15 -8 9 -22 12 -32 8 -10 -4 -21 0 -28 9 -14 18 -80
30 -94 16 -6 -6 -16 -7 -24 -2 -7 5 -40 7 -73 5 -54 -3 -58 -2 -46 13 8 9 23
16 35 15 11 -1 41 -1 65 -1 34 2 41 5 33 15 -8 9 -30 11 -89 6 -132 -13 -138
-12 -154 17 -12 23 -11 27 2 38 9 6 14 17 11 25 -2 7 2 17 9 22 11 6 11 11 1
21 -9 9 -12 9 -12 -5 0 -9 -3 -17 -8 -17 -11 0 -34 -58 -27 -70 10 -16 -11
-12 -25 5 -10 12 -9 16 4 21 12 5 14 10 6 19 -8 9 -7 14 2 17 11 4 11 8 0 21
-11 13 -10 17 4 25 15 8 15 9 -1 16 -22 8 -35 -1 -35 -25 0 -10 -5 -19 -11
-19 -6 0 -8 8 -4 19 3 11 0 21 -9 24 -10 4 -13 -1 -11 -19 1 -13 -2 -24 -6
-24 -5 0 -12 0 -16 0 -5 0 -8 4 -8 10 0 5 -5 14 -11 20 -8 8 -14 -2 -24 -32
-18 -56 -36 -83 -45 -68 -4 6 -5 14 -2 16 3 3 -1 20 -8 38 -8 18 -15 52 -16
74 -2 27 -8 42 -16 42 -7 0 -12 -3 -12 -7 4 -24 -3 -44 -13 -41 -22 8 -15 84
13 140 5 10 9 27 9 38 0 21 19 28 21 8 1 -7 2 -22 3 -32 0 -11 7 -21 15 -24 9
-3 11 2 6 17 -4 13 -1 28 5 36 10 12 10 15 -1 15 -7 0 -3 7 10 16 21 15 22 18
6 26 -15 9 -15 11 0 28 21 23 22 85 2 118 -5 7 -3 12 7 12 23 0 21 52 -4 102
-22 46 -19 59 8 35 10 -10 21 -14 25 -11 3 3 3 -3 1 -13 -3 -11 2 -25 10 -32
9 -8 16 -20 16 -27 0 -8 5 -14 10 -14 13 0 13 0 -11 54 -12 28 -18 55 -13 68
5 16 8 18 15 7 7 -11 9 -11 9 -1 0 7 10 1 23 -14 l23 -27 -3 39 c-4 37 -4 38
9 15 7 -14 23 -25 35 -26 15 -1 20 2 15 9 -5 6 -14 38 -21 71 -7 33 -14 65
-16 70 -1 6 7 21 19 34 19 22 19 24 2 17 -15 -5 -17 -2 -13 14 3 11 2 18 -3
15 -4 -3 -15 5 -23 18 -13 20 -13 26 -1 42 8 10 17 16 20 12 4 -4 1 -14 -7
-24 -12 -15 -12 -16 2 -11 9 4 22 1 28 -5 17 -17 24 -1 9 25 -7 12 -15 25 -18
28 -3 3 -6 30 -8 60 -2 39 0 51 7 40 17 -25 24 -3 11 37 -13 44 -19 59 -50
129 -12 29 -19 57 -16 63 4 6 3 11 -3 11 -12 0 -31 57 -29 85 1 11 -8 41 -19
65 -27 56 -42 204 -19 180 8 -8 17 -37 20 -64 2 -26 12 -56 21 -66 13 -14 13
-19 3 -23 -9 -3 -6 -10 10 -22 12 -9 20 -21 16 -26 -3 -6 2 -20 13 -32 34 -39
59 -97 46 -105 -9 -6 -9 -16 0 -46 10 -30 21 -43 55 -59 48 -24 54 -37 17 -37
-29 0 -28 2 -14 -37 5 -17 23 -41 40 -53 16 -13 29 -29 29 -35 0 -7 7 -18 15
-25 13 -11 13 -15 3 -22 -10 -6 -6 -15 17 -33 22 -19 27 -27 17 -33 -7 -5 -10
-15 -7 -24 3 -8 1 -27 -5 -43 -8 -22 -7 -33 5 -51 14 -22 14 -24 -10 -30 -32
-8 -31 -13 2 -40 35 -28 26 -59 -15 -50 l-27 6 23 -19 c20 -17 21 -23 10 -40
-7 -12 -17 -21 -22 -21 -4 0 3 -15 18 -34 14 -19 26 -36 26 -38 0 -2 -24 -2
-52 -1 -84 4 -88 -2 -32 -53 49 -45 47 -47 -15 -28 -14 4 -19 2 -17 -10 1 -8
5 -19 9 -22 15 -15 6 -42 -19 -59 -22 -14 -30 -15 -50 -4 -21 11 -26 10 -39
-7 -15 -18 -16 -18 -50 20 -31 34 -35 37 -35 18 0 -29 34 -62 64 -62 14 0 27
-4 30 -9 3 -5 18 -12 33 -16 15 -3 45 -15 66 -25 37 -18 57 -19 271 -14 127 4
243 6 259 6 l27 -1 0 1264 0 1264 -37 -16 c-29 -11 -54 -14 -103 -8 -137 14
-184 14 -214 0 -44 -22 -68 -18 -96 16 l-26 30 -38 -30 c-46 -36 -59 -38 -86
-11 -33 33 -65 41 -97 25 -41 -22 -69 -18 -92 11 -20 25 -22 26 -39 10 -32
-28 -55 -20 -81 29 l-24 45 -192 0 -192 0 5 -28 c3 -23 -3 -34 -28 -55 -36
-31 -50 -33 -89 -12 -34 17 -45 40 -31 65 6 10 10 21 10 24 0 3 -101 6 -225 6
-186 0 -225 -2 -225 -14 0 -31 -75 -35 -113 -6 -26 21 -87 28 -87 10z m1138
-32 c15 -15 16 -64 1 -73 -5 -4 -21 -4 -35 -1 -18 5 -24 13 -24 34 0 29 16 52
35 52 6 0 16 -5 23 -12z m-438 -121 c19 -6 51 -22 71 -34 20 -13 40 -23 45
-23 16 0 62 -53 57 -66 -3 -8 -1 -14 4 -14 4 0 14 -9 21 -21 12 -19 11 -19 -8
-9 -11 6 -20 15 -20 20 0 6 -7 10 -15 10 -18 0 -20 16 -2 24 6 3 0 4 -15 1
-21 -4 -26 -2 -22 9 4 9 -6 21 -26 31 -32 16 -58 12 -30 -5 28 -17 3 -20 -30
-3 -19 9 -55 17 -80 18 -26 1 -52 5 -58 9 -22 13 -12 36 21 50 41 18 45 18 87
3z m-390 -53 c18 -18 31 -23 48 -19 24 6 72 -17 72 -34 0 -14 -86 -61 -113
-61 -13 0 -33 11 -45 23 -15 16 -35 24 -59 25 -39 2 -66 18 -42 26 67 21 88
26 102 20 24 -9 21 5 -5 27 -23 18 -23 18 -2 19 11 0 31 -11 44 -26z m1284
-20 c9 -24 7 -34 -8 -34 -14 0 -28 34 -18 44 10 10 20 6 26 -10z m-794 -18 c0
-3 -4 -8 -10 -11 -5 -3 -10 -1 -10 4 0 6 5 11 10 11 6 0 10 -2 10 -4z m-680
-43 c0 -2 -24 -15 -54 -29 -30 -14 -62 -34 -72 -45 -9 -10 -24 -19 -32 -19
-15 0 20 36 74 76 24 18 84 30 84 17z m846 -100 c-7 -7 -26 7 -26 19 0 6 6 6
15 -2 9 -7 13 -15 11 -17z m-1024 -55 c-7 -7 -12 -8 -12 -2 0 14 12 26 19 19
2 -3 -1 -11 -7 -17z m1124 -58 c8 0 14 -3 14 -7 0 -5 12 -21 26 -38 14 -16 37
-52 51 -80 14 -27 30 -53 36 -56 5 -4 6 -12 2 -19 -5 -8 -3 -11 6 -8 8 3 20
-2 28 -9 10 -10 17 -11 24 -4 6 6 16 11 22 11 5 0 3 -5 -5 -10 -13 -9 -12 -12
4 -25 19 -15 19 -15 -3 -15 -19 0 -22 -4 -18 -21 5 -20 5 -20 -14 -3 -10 9
-19 22 -19 28 0 7 -15 26 -34 44 -18 17 -37 44 -41 59 -3 16 -29 57 -56 92
-27 35 -49 69 -48 75 0 7 3 6 6 -1 2 -7 11 -13 19 -13z m-1323 -259 c-37 -33
-57 -46 -49 -33 5 9 1 15 -13 19 -12 3 -21 9 -21 13 0 5 9 6 19 3 11 -3 30 2
42 11 28 19 47 9 22 -13z m1587 -1 c0 -5 -2 -10 -4 -10 -3 0 -8 5 -11 10 -3 6
-1 10 4 10 6 0 11 -4 11 -10z m-790 -145 c0 -8 -9 -15 -20 -15 -25 0 -25 -11
0 -33 15 -12 18 -24 14 -47 -4 -18 -2 -30 4 -30 5 0 13 -11 16 -25 4 -14 13
-25 21 -25 8 0 15 -5 15 -11 0 -5 6 -7 12 -3 24 15 49 11 71 -12 11 -12 27
-20 34 -17 9 3 11 0 7 -10 -3 -8 -1 -18 5 -22 6 -3 14 1 17 9 9 23 24 20 24
-5 0 -18 -5 -20 -39 -18 -30 2 -46 -3 -70 -24 -36 -30 -76 -35 -85 -11 -9 24
-27 6 -20 -21 4 -16 0 -26 -11 -32 -9 -6 -18 -25 -19 -46 -3 -39 -29 -72 -50
-64 -16 6 -25 55 -21 115 2 30 -2 42 -11 42 -16 0 -19 26 -5 34 5 4 5 24 -1
48 -8 40 -7 45 16 65 14 12 26 27 26 34 0 6 7 9 15 5 8 -3 15 -1 15 4 0 6 -5
10 -11 10 -10 0 -4 93 8 113 8 13 43 7 43 -8z m1160 5 c0 -5 -9 -10 -20 -10
-11 0 -20 5 -20 10 0 6 9 10 20 10 11 0 20 -4 20 -10z m-400 -125 c0 -16 8
-43 18 -60 16 -28 19 -75 4 -75 -4 0 -17 39 -28 88 -12 48 -25 96 -29 107 -6
16 -3 15 14 -5 11 -14 21 -38 21 -55z m-1630 15 c0 -5 -7 -10 -16 -10 -8 0
-12 5 -9 10 3 6 10 10 16 10 5 0 9 -4 9 -10z m780 -16 c0 -8 -5 -12 -10 -9 -6
4 -8 11 -5 16 9 14 15 11 15 -7z m-790 -43 c0 -12 -20 -25 -27 -18 -7 7 6 27
18 27 5 0 9 -4 9 -9z m748 -71 c-3 -65 -5 -69 -25 -68 -13 2 -24 11 -27 23 -3
11 -19 26 -36 33 -35 16 -42 52 -9 52 11 0 17 -4 14 -10 -12 -19 10 -9 34 15
41 44 52 34 49 -45z m-788 -39 c-13 -25 -27 -34 -41 -26 -12 8 19 43 39 44 10
1 10 -4 2 -18z m1730 5 c0 -3 -4 -8 -10 -11 -5 -3 -10 -1 -10 4 0 6 5 11 10
11 6 0 10 -2 10 -4z m-1043 -172 c-3 -3 -12 -4 -19 -1 -8 3 -5 6 6 6 11 1 17
-2 13 -5z m438 -154 c3 -5 1 -10 -4 -10 -6 0 -11 5 -11 10 0 6 2 10 4 10 3 0
8 -4 11 -10z m101 -78 c-18 -16 -18 -16 -6 6 6 13 14 21 18 18 3 -4 -2 -14
-12 -24z m260 -104 c-2 -41 -26 -68 -26 -29 0 21 17 71 24 71 2 0 3 -19 2 -42z
m-929 16 c-3 -3 -12 -4 -19 -1 -8 3 -5 6 6 6 11 1 17 -2 13 -5z m528 -15 c10
-15 -1 -23 -20 -15 -9 3 -13 10 -10 16 8 13 22 13 30 -1z m-255 -64 c0 -8 -7
-15 -15 -15 -8 0 -15 7 -15 15 0 8 7 15 15 15 8 0 15 -7 15 -15z m630 -45 c0
-5 -2 -10 -4 -10 -3 0 -8 5 -11 10 -3 6 -1 10 4 10 6 0 11 -4 11 -10z m-360
-590 c0 -6 -15 -19 -32 -30 -18 -11 -32 -22 -30 -26 4 -7 -43 -44 -58 -44 -6
0 -8 5 -5 10 3 6 -1 10 -9 10 -9 0 -16 -4 -16 -9 0 -5 -9 -13 -20 -16 -11 -3
-20 -12 -20 -20 0 -7 -15 -15 -32 -18 -33 -4 -78 9 -78 24 0 5 -10 17 -22 29
-22 20 -22 20 -1 20 11 0 23 7 27 15 7 19 96 21 114 3 10 -10 17 -10 31 -1 10
6 35 15 55 18 20 4 36 11 36 16 0 5 9 9 19 9 11 0 23 5 26 10 8 13 15 13 15 0z
m60 -64 c-7 -7 -10 -4 -10 8 0 9 -4 15 -9 12 -5 -3 -7 -16 -3 -28 4 -16 2 -19
-8 -13 -9 5 -11 4 -6 -4 4 -6 3 -18 -3 -25 -7 -8 -11 -18 -10 -22 7 -32 -40
-60 -56 -34 -4 6 -11 8 -16 5 -5 -3 -6 1 -3 9 4 11 0 13 -18 9 -21 -5 -20 -4
7 18 40 31 114 112 115 124 0 6 7 -3 15 -19 11 -20 12 -33 5 -40z m-423 -1 c0
-8 -4 -15 -7 -15 -4 0 -13 7 -20 15 -10 12 -9 15 7 15 11 0 20 -7 20 -15z
m930 -71 c-9 -9 -28 6 -21 18 4 6 10 6 17 -1 6 -6 8 -13 4 -17z m-1 -25 c8
-14 -11 -33 -25 -25 -11 7 -4 36 9 36 5 0 12 -5 16 -11z m-821 -30 c15 -6 10
-8 -20 -8 -47 -1 -85 8 -85 19 0 9 74 1 105 -11z m99 6 c-4 -8 -17 -15 -31
-15 -13 0 -21 -4 -18 -10 3 -5 1 -10 -4 -10 -18 0 -12 38 7 43 37 10 51 7 46
-8z m603 -67 c-3 -8 -6 -5 -6 6 -1 11 2 17 5 13 3 -3 4 -12 1 -19z m-414 5
c-7 -2 -13 -14 -13 -24 0 -11 -4 -18 -9 -15 -15 9 0 46 18 45 10 0 11 -2 4 -6z
m-333 -43 c0 -5 -5 -10 -11 -10 -5 0 -7 5 -4 10 3 6 8 10 11 10 2 0 4 -4 4
-10z m729 -67 c-7 -10 -15 -20 -16 -22 -2 -2 -3 5 -3 17 0 14 6 22 16 22 14 0
15 -3 3 -17z m-354 -23 c-3 -5 -13 -10 -21 -10 -8 0 -12 5 -9 10 3 6 13 10 21
10 8 0 12 -4 9 -10z m-49 -48 c-3 -2 -12 -2 -21 2 -13 5 -13 9 -3 26 13 20 13
20 21 -2 4 -11 5 -23 3 -26z m94 34 c0 -2 -7 -6 -15 -10 -8 -3 -15 -1 -15 4 0
6 7 10 15 10 8 0 15 -2 15 -4z m-1020 -46 c0 -5 -7 -10 -15 -10 -8 0 -15 5
-15 10 0 6 7 10 15 10 8 0 15 -4 15 -10z m971 -3 c-13 -16 -5 -28 15 -20 8 3
14 -1 14 -10 0 -9 -9 -19 -20 -22 -30 -10 -24 -26 8 -19 26 6 26 6 10 -12 -15
-15 -21 -16 -44 -5 -31 14 -42 8 -24 -14 7 -9 11 -17 9 -18 -2 -1 -11 -8 -19
-14 -13 -9 -15 -3 -18 48 -1 44 1 59 11 59 8 0 22 9 33 19 21 22 42 28 25 8z
m89 -42 c0 -8 -4 -15 -10 -15 -5 0 -10 7 -10 15 0 8 5 15 10 15 6 0 10 -7 10
-15z m510 -5 c0 -5 -2 -10 -4 -10 -3 0 -8 5 -11 10 -3 6 -1 10 4 10 6 0 11 -4
11 -10z m-1831 -19 c23 -12 30 -20 21 -26 -7 -4 -16 -2 -21 6 -5 8 -9 10 -9 6
0 -11 -40 12 -40 23 0 14 10 12 49 -9z m-173 -19 c-7 -12 -46 -23 -46 -13 0 9
43 31 49 25 1 -1 0 -7 -3 -12z m78 -1 c3 -5 0 -11 -8 -14 -15 -6 -26 1 -26 15
0 11 27 10 34 -1z m84 -53 c44 -34 52 -48 26 -48 -8 0 -12 5 -9 11 4 6 -2 13
-14 16 -12 3 -21 11 -21 18 0 7 -7 12 -16 11 -9 0 -19 5 -21 12 -8 20 11 14
55 -20z m76 16 c5 -12 2 -15 -10 -10 -8 3 -18 6 -20 6 -3 0 -2 5 1 10 9 15 22
12 29 -6z m1846 -4 c0 -5 -4 -10 -9 -10 -6 0 -13 5 -16 10 -3 6 1 10 9 10 9 0
16 -4 16 -10z m-2104 -25 c-27 -21 -53 -20 -36 0 7 8 22 15 34 15 21 -1 21 -1
2 -15z m72 6 c11 -7 10 -10 -3 -15 -19 -7 -35 0 -35 15 0 11 20 12 38 0z m882
-33 c0 -10 0 -21 1 -25 1 -12 -15 -14 -30 -4 -7 5 -15 22 -17 39 -3 28 -2 29
21 18 14 -6 25 -19 25 -28z m1185 22 c-3 -5 -12 -7 -20 -3 -21 7 -19 13 6 13
11 0 18 -4 14 -10z m95 -21 c0 -5 -13 -9 -30 -9 -16 0 -32 0 -35 0 -16 0 -3
16 17 21 26 6 48 1 48 -12z m-2091 -8 c20 -15 21 -19 7 -24 -9 -4 -16 -3 -16
2 0 5 -9 11 -20 14 -22 6 -28 27 -7 27 6 0 23 -9 36 -19z m-199 5 c0 -2 -7 -9
-15 -16 -13 -11 -14 -10 -9 4 5 14 24 23 24 12z m60 -24 c0 -9 -40 -35 -46
-29 -6 6 25 37 37 37 5 0 9 -3 9 -8z m78 -19 c43 -28 53 -43 28 -43 -8 0 -22
10 -31 23 -8 12 -25 22 -37 22 -12 0 -23 6 -25 13 -7 20 20 14 65 -15z m1742
12 c0 -8 -2 -15 -4 -15 -2 0 -6 7 -10 15 -3 8 -1 15 4 15 6 0 10 -7 10 -15z
m300 5 c0 -5 -5 -10 -11 -10 -5 0 -7 5 -4 10 3 6 8 10 11 10 2 0 4 -4 4 -10z
m238 4 c33 -9 27 -28 -7 -21 -16 3 -31 3 -35 0 -10 -10 -76 -12 -76 -3 0 6 12
10 28 10 15 0 34 5 42 10 18 11 18 11 48 4z m-2170 -32 c2 -7 -3 -12 -12 -12
-9 0 -16 7 -16 16 0 17 22 14 28 -4z m1994 -8 c-13 -9 -26 -13 -30 -9 -8 8 17
25 38 25 9 0 6 -6 -8 -16z m-362 -4 c0 -5 -4 -10 -10 -10 -5 0 -10 5 -10 10 0
6 5 10 10 10 6 0 10 -4 10 -10z m-245 -9 c19 -8 19 -8 -2 -15 -13 -4 -23 -15
-24 -24 0 -11 -2 -12 -6 -4 -2 6 -9 10 -14 6 -5 -3 -9 0 -9 5 0 6 7 11 16 11
10 0 14 6 10 15 -6 16 -1 17 29 6z m-1365 -5 c0 -3 -4 -8 -10 -11 -5 -3 -10
-1 -10 4 0 6 5 11 10 11 6 0 10 -2 10 -4z m1417 -11 c0 -8 -4 -12 -9 -9 -4 3
-8 9 -8 15 0 5 4 9 8 9 5 0 9 -7 9 -15z m493 6 c0 -12 -20 -25 -27 -18 -7 7 6
27 18 27 5 0 9 -4 9 -9z m-2090 -12 c0 -5 -8 -9 -17 -7 -10 1 -24 -1 -31 -6
-16 -10 -27 -2 -17 13 8 14 65 14 65 0z m1780 1 c0 -5 -5 -10 -11 -10 -5 0 -7
5 -4 10 3 6 8 10 11 10 2 0 4 -4 4 -10z m503 -1 c-13 -13 -83 -22 -83 -10 0 6
17 12 38 14 20 2 41 4 47 5 5 1 4 -3 -2 -9z m42 1 c3 -5 1 -10 -4 -10 -6 0
-11 5 -11 10 0 6 2 10 4 10 3 0 8 -4 11 -10z m-2255 -41 c0 -18 -32 -5 -47 18
l-15 23 31 -16 c17 -8 31 -20 31 -25z m50 26 c0 -8 -4 -15 -10 -15 -5 0 -10 7
-10 15 0 8 5 15 10 15 6 0 10 -7 10 -15z m2025 -15 c-3 -5 -10 -10 -16 -10 -5
0 -9 5 -9 10 0 6 7 10 16 10 8 0 12 -4 9 -10z m-2228 -22 c-3 -8 -6 -5 -6 6
-1 11 2 17 5 13 3 -3 4 -12 1 -19z m226 2 c-3 -12 -8 -19 -11 -16 -5 6 5 36
12 36 2 0 2 -9 -1 -20z m1424 -2 c-3 -8 -6 -5 -6 6 -1 11 2 17 5 13 3 -3 4
-12 1 -19z m-1569 -15 c48 -30 87 -83 61 -83 -6 0 -13 8 -16 18 -6 24 -66 56
-92 49 -13 -3 -21 0 -21 7 0 30 28 34 68 9z m2282 8 c0 -5 -7 -11 -15 -15 -15
-5 -20 5 -8 17 9 10 23 9 23 -2z m40 -13 c0 -13 -23 -5 -28 10 -2 7 2 10 12 6
9 -3 16 -11 16 -16z m59 8 c9 -11 9 -15 -1 -19 -19 -6 -38 3 -38 19 0 18 24
18 39 0z m-2289 -12 c0 -8 -4 -12 -10 -9 -5 3 -10 10 -10 16 0 5 5 9 10 9 6 0
10 -7 10 -16z m1988 -4 c-8 -13 -15 -16 -19 -8 -10 15 -2 28 17 28 12 0 12 -4
2 -20z m150 8 c-3 -7 -15 -15 -28 -16 -21 -3 -22 -2 -11 12 16 19 44 21 39 4z
m-80 -24 c-9 -9 -21 -13 -27 -9 -16 10 -3 25 22 25 20 0 20 -1 5 -16z m-2161
-40 c41 -18 73 -74 43 -74 -5 0 -10 6 -10 13 0 18 -64 59 -82 52 -10 -4 -17 1
-20 13 -6 22 13 21 69 -4z m133 16 c0 -5 -4 -10 -10 -10 -5 0 -10 5 -10 10 0
6 5 10 10 10 6 0 10 -4 10 -10z m1964 -9 c7 -10 -18 -34 -27 -25 -7 8 3 34 13
34 5 0 11 -4 14 -9z m226 -1 c0 -6 -6 -10 -12 -9 -7 1 -24 0 -38 -4 -73 -17
-82 -18 -78 -5 8 22 128 39 128 18z m92 -11 c23 -12 50 -25 58 -30 8 -5 24
-13 35 -18 11 -5 44 -32 74 -61 43 -40 52 -53 42 -63 -10 -9 -14 -9 -21 3 -17
29 -55 77 -62 79 -5 0 -15 1 -23 1 -8 0 -15 7 -15 15 0 8 -6 15 -14 15 -8 0
-22 7 -31 16 -8 9 -22 13 -30 10 -8 -3 -19 2 -24 12 -5 9 -22 16 -37 17 -15 0
-29 6 -31 13 -7 19 30 15 79 -9z m-252 -24 c0 -8 -7 -15 -15 -15 -16 0 -20 12
-8 23 11 12 23 8 23 -8z m-2060 -14 c0 -6 -4 -13 -10 -16 -5 -3 -10 1 -10 9 0
9 5 16 10 16 6 0 10 -4 10 -9z m-95 -37 c14 -15 25 -33 25 -40 0 -7 3 -19 6
-28 3 -9 2 -16 -4 -16 -6 0 -13 13 -17 30 -4 16 -15 32 -26 35 -10 4 -19 11
-19 16 0 5 -7 9 -15 9 -8 0 -15 5 -15 10 0 20 41 9 65 -16z m2090 6 c-10 -11
-22 -17 -27 -14 -5 3 -1 12 9 20 27 20 39 17 18 -6z m190 8 c-11 -6 -27 -12
-35 -13 -8 -1 -23 -6 -33 -10 -22 -9 -33 0 -19 17 6 7 32 14 59 16 41 2 45 0
28 -10z m101 -3 c18 -14 18 -14 -6 -15 -37 0 -71 11 -64 21 8 14 48 11 70 -6z
m-2316 -24 c0 -6 -4 -13 -10 -16 -5 -3 -10 1 -10 9 0 9 5 16 10 16 6 0 10 -4
10 -9z m2087 -8 c-9 -9 -19 -14 -23 -11 -10 10 6 28 24 28 15 0 15 -1 -1 -17z
m322 -15 c21 -12 46 -34 56 -48 10 -15 27 -31 39 -36 11 -5 22 -17 24 -26 5
-26 -27 -22 -38 5 -15 35 -36 57 -55 57 -9 0 -19 9 -22 20 -3 12 -13 19 -26
17 -13 -1 -23 5 -25 16 -5 22 1 22 47 -5z m-2528 -21 c-13 -13 -26 -3 -16 12
3 6 11 8 17 5 6 -4 6 -10 -1 -17z m2155 -5 c-8 -9 -19 -13 -22 -9 -10 9 16 38
28 31 6 -4 4 -13 -6 -22z m169 1 c-11 -7 -27 -11 -36 -8 -10 3 -20 1 -24 -5
-9 -14 -25 -13 -25 3 0 15 57 34 84 28 18 -4 18 -5 1 -18z m93 0 c6 -19 -33
-16 -49 3 -11 14 -9 15 16 12 16 -1 30 -9 33 -15z m-2367 -38 c9 -25 13 -48 8
-51 -5 -3 -9 3 -9 13 0 11 -7 28 -15 39 -16 21 -20 44 -7 44 4 0 14 -20 23
-45z m2169 9 c0 -8 -9 -14 -20 -14 -18 0 -19 3 -10 20 12 22 30 18 30 -6z
m285 -11 c22 -14 43 -31 47 -37 3 -6 20 -26 37 -44 17 -17 31 -36 31 -42 0
-17 -30 -11 -36 8 -10 31 -33 67 -43 65 -5 -1 -17 7 -26 17 -10 11 -23 20 -30
20 -7 0 -20 9 -30 20 -27 30 1 26 50 -7z m-2535 -13 c0 -5 -2 -10 -4 -10 -3 0
-8 5 -11 10 -3 6 -1 10 4 10 6 0 11 -4 11 -10z m2200 -5 c0 -8 -9 -15 -20 -15
-22 0 -27 15 -7 23 21 9 27 7 27 -8z m150 -10 c-7 -9 -20 -13 -28 -10 -9 3
-19 0 -23 -7 -7 -10 -11 -10 -21 0 -17 17 5 32 51 32 29 0 32 -2 21 -15z m85
6 c3 -5 2 -12 -3 -15 -12 -7 -52 4 -52 15 0 12 47 12 55 0z m338 -33 c-9 -16
-31 -7 -47 17 l-16 25 34 -18 c19 -9 32 -20 29 -24z m-513 2 c0 -12 -28 -25
-36 -17 -9 9 6 27 22 27 8 0 14 -5 14 -10z m265 -18 c22 -16 39 -32 38 -37 -3
-18 -21 -16 -40 3 -10 11 -28 25 -40 31 -25 13 -31 31 -10 31 6 -1 30 -13 52
-28z m-315 -11 c0 -14 -18 -23 -30 -16 -6 4 -8 11 -5 16 8 12 35 12 35 0z
m211 -24 c-8 -8 -18 -7 -37 3 -23 13 -24 15 -7 21 25 9 59 -9 44 -24z m-74 11
c-2 -7 -12 -12 -21 -10 -9 2 -29 -5 -44 -15 -58 -40 -126 -57 -101 -26 6 7 15
11 19 8 5 -3 16 2 24 11 9 9 22 17 29 18 6 2 23 8 37 14 34 15 63 15 57 0z
m360 -3 c9 -24 -1 -27 -15 -5 -8 13 -8 20 -2 20 6 0 13 -7 17 -15z m-206 -37
c21 -17 39 -35 39 -40 0 -15 -29 -8 -42 10 -7 9 -22 22 -33 28 -10 6 -21 16
-23 22 -7 21 18 13 59 -20z m-93 -26 c2 -7 -14 -11 -49 -10 -28 0 -54 -4 -58
-9 -10 -14 -81 -43 -104 -43 -17 1 -13 5 17 20 22 11 45 20 52 20 7 0 14 5 16
12 2 6 26 15 54 18 58 8 67 7 72 -8z m213 -40 c-18 -6 -41 18 -41 42 1 19 3
19 27 -9 16 -18 21 -31 14 -33z m83 8 c-14 -13 -17 -13 -30 4 -21 30 -17 35
16 23 27 -10 28 -13 14 -27z m-194 -42 c0 -4 -5 -8 -10 -8 -15 0 -69 63 -63
73 6 9 73 -51 73 -65z m-104 10 c4 -5 15 -8 25 -8 10 0 24 -13 33 -30 8 -16
10 -30 5 -30 -5 0 -9 -9 -9 -20 0 -23 -10 -26 -28 -8 -18 18 -15 28 8 28 25 0
25 12 1 34 -27 24 -121 17 -178 -13 -23 -13 -47 -19 -54 -16 -10 7 0 13 61 39
8 4 24 12 36 19 23 13 88 16 100 5z m179 -14 c19 -29 12 -44 -12 -28 -16 10
-26 54 -12 54 3 0 14 -12 24 -26z m85 -4 c21 -17 22 -20 7 -20 -17 0 -47 22
-47 34 0 11 15 6 40 -14z m-488 -62 c-7 -7 -12 -8 -12 -2 0 14 12 26 19 19 2
-3 -1 -11 -7 -17z m213 2 c0 -11 -11 -15 -40 -15 -22 0 -58 -9 -80 -19 -36
-17 -95 -30 -95 -20 0 10 83 42 96 37 8 -3 14 -1 14 4 0 14 36 28 73 28 22 0
32 -5 32 -15z m176 -25 c13 -25 27 -45 31 -45 5 0 8 -9 8 -20 0 -11 -4 -20
-10 -20 -5 0 -10 6 -10 13 0 24 -25 66 -42 71 -10 2 -18 14 -18 25 0 34 15 25
41 -24z m39 35 c0 -5 -5 -10 -11 -10 -5 0 -7 5 -4 10 3 6 8 10 11 10 2 0 4 -4
4 -10z m17 -32 c-3 -8 -6 -5 -6 6 -1 11 2 17 5 13 3 -3 4 -12 1 -19z m63 7 c0
-8 -9 -15 -20 -15 -11 0 -20 7 -20 15 0 8 9 15 20 15 11 0 20 -7 20 -15z
m-166 -50 c14 -21 14 -25 2 -25 -13 0 -36 28 -36 44 0 15 19 4 34 -19z m-66
-19 c4 -16 2 -16 -27 -2 -16 9 -32 12 -35 7 -3 -5 -24 -8 -47 -7 -23 1 -47 -3
-54 -11 -7 -7 -28 -14 -47 -15 -18 -2 -38 -10 -45 -18 -14 -18 -28 -7 -20 15
4 8 18 15 32 15 14 0 33 4 43 9 86 44 193 48 200 7z m250 12 c-5 -15 -58 -24
-58 -9 0 9 20 17 48 20 8 0 12 -5 10 -11z m-213 -54 c16 -25 16 -26 -4 -19
-12 4 -21 2 -21 -4 0 -15 -37 -14 -43 2 -3 9 -8 9 -18 1 -17 -13 -99 -16 -99
-4 0 17 24 23 91 22 55 -1 69 1 69 13 0 21 5 19 25 -11z m73 -14 c9 -8 27 -13
41 -11 22 3 23 1 12 -13 -20 -24 -50 -20 -61 8 -5 13 -14 27 -20 31 -5 3 -7
11 -3 18 5 8 8 7 11 -3 3 -8 12 -21 20 -30z m172 13 c0 -11 -50 -33 -72 -33
-26 0 -22 19 5 24 12 3 31 7 42 9 11 3 21 5 23 6 1 0 2 -2 2 -6z m-450 -38 c0
-8 -9 -16 -20 -16 -24 -2 -29 -3 -53 -14 -11 -4 -23 -3 -29 3 -8 8 0 13 31 18
23 4 44 11 47 15 8 14 24 10 24 -6z m262 -56 c6 -4 27 -5 47 -1 32 5 35 4 23
-11 -20 -24 -89 -19 -95 8 -3 11 -8 31 -12 45 -6 22 -5 21 10 -5 9 -16 21 -33
27 -36z m163 5 c-34 -17 -58 -18 -53 -1 5 12 57 27 71 19 5 -2 -4 -10 -18 -18z
m-241 1 c7 -20 -18 -20 -34 0 -10 12 -9 15 8 15 11 0 22 -7 26 -15z"/>
<path d="M2441 1368 c-6 -17 -8 -34 -4 -37 5 -3 8 -25 9 -49 1 -62 25 -75 28
-15 1 15 5 33 9 40 10 16 -2 43 -20 43 -11 0 -13 7 -9 25 9 36 0 31 -13 -7z"/>
<path d="M855 1290 c3 -5 13 -10 21 -10 8 0 14 5 14 10 0 6 -9 10 -21 10 -11
0 -17 -4 -14 -10z"/>
<path d="M725 1280 c-3 -5 -2 -10 4 -10 5 0 13 5 16 10 3 6 2 10 -4 10 -5 0
-13 -4 -16 -10z"/>
<path d="M605 1260 c-3 -5 -2 -10 4 -10 5 0 13 5 16 10 3 6 2 10 -4 10 -5 0
-13 -4 -16 -10z"/>
<path d="M795 1252 c22 -22 65 -38 65 -25 -1 18 -17 31 -50 38 -35 7 -35 7
-15 -13z"/>
<path d="M920 1260 c0 -5 5 -10 10 -10 6 0 10 5 10 10 0 6 -4 10 -10 10 -5 0
-10 -4 -10 -10z"/>
<path d="M670 1240 c20 -13 40 -13 40 0 0 6 -12 10 -27 10 -22 0 -25 -2 -13
-10z"/>
<path d="M720 1232 c0 -14 45 -52 62 -52 9 0 18 -6 21 -12 2 -7 8 -10 12 -5
11 10 -16 59 -30 53 -6 -2 -19 2 -30 10 -21 16 -35 18 -35 6z"/>
<path d="M885 1229 c-5 -8 19 -19 40 -19 7 0 15 6 18 13 4 10 -4 14 -24 14
-17 0 -32 -4 -34 -8z"/>
<path d="M555 1221 c-3 -5 -1 -12 5 -16 12 -7 30 2 30 16 0 12 -27 12 -35 0z"/>
<path d="M2745 1130 c-3 -5 1 -10 10 -10 9 0 13 5 10 10 -3 6 -8 10 -10 10 -2
0 -7 -4 -10 -10z"/>
<path d="M2798 1123 c7 -3 16 -2 19 1 4 3 -2 6 -13 5 -11 0 -14 -3 -6 -6z"/>
<path d="M2717 1074 c-10 -13 -13 -24 -7 -24 5 0 10 5 10 10 0 6 20 10 45 10
25 0 45 5 45 10 0 6 -11 8 -25 4 -14 -3 -31 -2 -38 4 -9 7 -17 3 -30 -14z"/>
<path d="M2850 1080 c0 -5 5 -10 10 -10 6 0 10 5 10 10 0 6 -4 10 -10 10 -5 0
-10 -4 -10 -10z"/>
<path d="M2620 1065 c0 -18 4 -18 50 0 l35 13 -42 1 c-32 1 -43 -3 -43 -14z"/>
<path d="M2948 1073 c6 -2 18 -2 25 0 6 3 1 5 -13 5 -14 0 -19 -2 -12 -5z"/>
<path d="M2885 1041 c-13 -12 -2 -21 28 -21 18 0 38 -5 45 -12 16 -16 28 -2
13 16 -11 13 -77 27 -86 17z"/>
<path d="M3080 1026 c0 -2 7 -7 16 -10 8 -3 12 -2 9 4 -6 10 -25 14 -25 6z"/>
<path d="M3010 1002 c0 -6 10 -14 23 -18 12 -3 43 -22 70 -40 38 -28 47 -31
47 -16 0 14 -49 44 -132 80 -5 2 -8 -1 -8 -6z"/>
<path d="M3170 895 c7 -8 16 -15 21 -15 5 0 9 7 9 15 0 9 -9 15 -21 15 -18 0
-19 -2 -9 -15z"/>
<path d="M15 670 c-3 -6 1 -13 10 -16 19 -8 30 0 20 15 -8 14 -22 14 -30 1z"/>
<path d="M166 423 c-9 -9 -7 -33 3 -33 12 0 22 28 12 34 -5 3 -11 3 -15 -1z"/>
<path d="M92 383 c-15 -6 -6 -23 14 -23 8 0 14 7 14 15 0 15 -6 17 -28 8z"/>
<path d="M290 380 c-12 -8 -10 -10 8 -10 13 0 20 4 17 10 -7 12 -6 12 -25 0z"/>
<path d="M390 376 c0 -2 7 -7 16 -10 8 -3 12 -2 9 4 -6 10 -25 14 -25 6z"/>
</g>
</svg>
